<?xml version="1.0" standalone="no"?>
<!DOCTYPE svg PUBLIC "-//W3C//DTD SVG 20010904//EN"
 "http://www.w3.org/TR/2001/REC-SVG-20010904/DTD/svg10.dtd">
<svg version="1.0" xmlns="http://www.w3.org/2000/svg"
 width="500.000000pt" height="280.000000pt" viewBox="0 0 500.000000 280.000000"
 preserveAspectRatio="xMidYMid meet">

<g transform="translate(0.000000,280.000000) scale(0.100000,-0.100000)"
fill="#000000" stroke="none">
<path d="M2661 1573 c-11 -21 -32 -54 -46 -73 l-27 -35 7 49 c4 27 9 55 12 62
3 9 -2 14 -14 14 -13 0 -38 -28 -76 -86 -31 -47 -57 -90 -57 -95 0 -23 21 -4
48 44 17 28 38 61 47 72 16 19 16 18 11 -20 -3 -22 -8 -55 -12 -72 -7 -37 4
-43 28 -15 32 35 118 166 118 179 0 25 -20 13 -39 -24z"/>
<path d="M1028 1583 c-19 -22 -91 -130 -107 -160 -9 -18 -9 -23 1 -23 8 0 32
30 56 68 23 37 51 82 63 100 22 34 13 44 -13 15z"/>
<path d="M1215 1581 c-16 -10 -48 -37 -70 -60 -21 -22 -48 -41 -60 -41 -15 0
-17 -2 -6 -9 11 -7 11 -13 -3 -32 -18 -27 -20 -39 -7 -39 6 0 18 14 28 30 32
55 96 53 67 -1 -17 -33 -16 -42 3 -31 13 8 93 174 93 192 0 15 -11 12 -45 -9z
m5 -37 c-19 -49 -31 -64 -50 -64 -31 0 -23 25 18 59 20 17 38 30 39 31 1 0 -2
-12 -7 -26z"/>
<path d="M1288 1521 c-75 -94 -102 -138 -89 -145 5 -3 27 23 50 58 23 35 51
72 63 82 17 16 15 9 -10 -42 -17 -34 -28 -65 -25 -68 4 -4 38 24 76 61 72 70
73 69 25 -6 -15 -25 -28 -49 -28 -53 0 -17 37 -7 58 15 28 29 29 46 2 22 -40
-36 -29 -6 25 69 30 43 55 79 55 82 0 2 -8 4 -17 4 -10 0 -48 -30 -86 -67
l-69 -68 37 68 c34 62 35 67 17 67 -14 0 -42 -27 -84 -79z"/>
<path d="M1603 1568 c-47 -49 -133 -169 -133 -184 0 -26 16 -14 47 39 17 28
46 68 63 87 l30 35 -32 -67 c-17 -37 -28 -71 -24 -75 5 -4 40 26 79 67 42 46
61 61 48 40 -59 -93 -63 -123 -16 -102 18 8 25 8 25 1 0 -7 15 -9 43 -5 56 8
53 8 127 0 l66 -6 28 36 c20 26 34 36 49 34 22 -3 24 -13 11 -57 -5 -18 -4
-22 6 -16 14 9 90 168 90 189 0 25 -38 5 -98 -50 -31 -30 -66 -54 -77 -55 -18
0 -18 -1 -2 -7 16 -7 16 -9 1 -31 -15 -21 -22 -23 -71 -18 -31 3 -57 8 -60 11
-8 8 76 125 100 137 21 11 21 11 -2 -15 -18 -19 -20 -26 -9 -26 8 0 25 11 38
25 18 19 21 28 12 37 -22 22 -75 -15 -123 -85 -43 -64 -45 -65 -83 -62 -22 2
-48 0 -58 -6 -27 -15 -23 -4 32 75 28 40 50 75 50 79 0 21 -34 -1 -90 -58 -35
-35 -66 -63 -68 -61 -2 2 10 28 27 58 17 30 31 58 31 61 0 17 -29 4 -57 -25z
m462 -44 c-8 -20 -15 -38 -15 -40 0 -2 -11 -4 -25 -4 -33 0 -32 7 7 47 41 43
52 42 33 -3z"/>
<path d="M2393 1580 c-34 -15 -43 -24 -43 -45 0 -14 5 -25 12 -25 6 0 -1 -13
-16 -29 -40 -41 -33 -75 16 -79 29 -2 43 3 72 28 20 18 36 39 36 49 -1 14 -3
13 -15 -3 -35 -46 -115 -75 -115 -41 0 19 50 65 71 65 9 0 23 7 30 17 13 15
11 16 -23 9 -24 -4 -39 -3 -44 5 -11 18 26 40 63 37 35 -2 49 5 38 21 -9 16
-34 13 -82 -9z"/>
<path d="M2813 1568 c-47 -49 -133 -169 -133 -184 0 -26 16 -14 47 39 17 28
46 68 63 87 l30 35 -32 -67 c-17 -37 -28 -71 -24 -75 5 -4 40 26 79 67 42 46
61 61 48 40 -59 -94 -64 -128 -14 -100 33 19 46 48 14 31 -11 -7 -21 -9 -21
-5 0 3 23 38 50 78 28 40 50 75 50 79 0 21 -34 -1 -90 -58 -35 -35 -66 -63
-68 -61 -2 2 10 28 27 58 17 30 31 58 31 61 0 17 -29 4 -57 -25z"/>
<path d="M3093 1589 c-11 -4 -45 -30 -74 -58 -29 -28 -63 -51 -74 -52 -18 0
-18 -1 -2 -7 16 -7 16 -9 3 -27 -30 -40 -15 -49 17 -11 22 26 39 37 52 34 20
-4 22 -14 9 -57 -16 -53 20 -6 58 77 43 93 45 114 11 101z m-18 -65 c-8 -20
-15 -38 -15 -40 0 -2 -11 -4 -25 -4 -33 0 -32 7 7 47 41 43 52 42 33 -3z"/>
<path d="M3213 1590 c-38 -9 -83 -36 -83 -50 0 -15 21 -12 34 4 6 8 24 18 40
22 28 7 28 6 -23 -66 -48 -68 -61 -100 -43 -100 4 0 16 16 26 35 11 19 23 35
27 35 4 0 22 -18 39 -40 27 -34 36 -39 58 -33 15 3 30 11 34 18 4 6 16 22 26
35 l19 24 52 -38 c32 -23 58 -36 67 -32 12 5 2 16 -40 43 -31 21 -56 40 -56
43 0 4 22 17 49 29 59 28 108 66 95 74 -5 3 -38 -12 -71 -34 -34 -21 -65 -39
-68 -39 -4 0 3 13 14 29 23 33 27 56 9 48 -43 -18 -68 -33 -68 -41 0 -4 9 -6
20 -3 19 5 20 4 3 -24 -10 -16 -23 -29 -31 -29 -7 0 -11 -4 -7 -10 7 -12 -36
-80 -51 -80 -7 0 -23 15 -37 33 l-26 34 44 21 c91 44 51 116 -52 92z m77 -20
c13 -8 11 -13 -10 -34 -14 -13 -36 -27 -49 -31 l-24 -7 21 34 c12 19 19 38 15
41 -10 11 30 8 47 -3z"/>
<path d="M3594 1571 c-89 -64 -113 -171 -39 -171 36 0 98 53 129 109 l28 53
-21 19 c-28 26 -51 24 -97 -10z m45 -12 c-27 -27 -18 -35 15 -14 14 10 26 14
26 11 0 -33 -95 -136 -125 -136 -9 0 -18 7 -21 15 -9 22 41 100 78 124 42 27
54 27 27 0z"/>
<path d="M3771 1580 c-13 -11 -30 -20 -38 -20 -8 0 -13 -6 -10 -12 2 -7 12
-12 22 -10 14 3 13 -2 -8 -30 -84 -110 -29 -147 75 -50 51 47 108 118 108 134
0 4 -7 8 -15 8 -8 0 -15 -6 -15 -14 0 -20 -106 -134 -142 -152 -42 -22 -37 0
21 83 44 62 52 84 32 83 -3 -1 -17 -10 -30 -20z"/>
<path d="M3911 1505 c-36 -52 -61 -98 -57 -102 9 -10 25 10 89 110 31 48 51
87 44 87 -7 0 -41 -43 -76 -95z"/>
<path d="M2153 1578 c-26 -13 -38 -38 -18 -38 8 0 15 4 15 9 0 11 39 26 46 18
3 -3 -16 -37 -41 -75 -26 -39 -44 -75 -40 -81 10 -16 55 -13 100 8 80 36 119
116 77 154 -21 19 -104 22 -139 5z m124 -20 c20 -16 15 -44 -12 -77 -25 -29
-110 -70 -122 -58 -3 4 15 38 40 76 31 47 42 71 34 75 -7 4 1 3 18 0 16 -3 36
-10 42 -16z"/>
<path d="M4055 1578 c-38 -21 -85 -72 -95 -104 -14 -40 1 -74 31 -74 25 0 71
23 89 45 22 26 6 26 -33 0 -41 -28 -65 -32 -73 -11 -13 35 75 136 119 136 21
-1 21 -1 -5 -25 -31 -27 -34 -35 -15 -35 19 0 57 43 57 63 0 20 -43 23 -75 5z"/>
</g>
</svg>
